<svg width="172" height="41" viewBox="0 0 172 41" fill="none" xmlns="http://www.w3.org/2000/svg">
<g clip-path="url(#clip0_1_607)">
<path d="M15.7929 8.8208V8.82184C15.776 8.85092 12.2955 14.8548 7.95067 22.1851C3.59532 29.5332 0 35.4162 0 35.4162L12.3315 35.3621L12.3323 35.3619L12.3297 35.3715C18.3172 35.2555 23.7182 31.319 25.3119 25.3709C25.8102 23.5115 25.8853 21.6398 25.5964 19.8511C24.8043 14.5838 20.9149 10.3001 15.7929 8.8208Z" fill="black"/>
<path d="M22.6077 5.03491V5.03596C22.5908 5.06503 19.1102 11.0689 14.7654 18.3992C10.4101 25.7474 6.81476 31.6303 6.81476 31.6303L19.1462 31.5762L19.147 31.5761L19.1445 31.5856C25.132 31.4697 30.5329 27.5331 32.1267 21.585C32.6249 19.7257 32.7001 17.854 32.4111 16.0652C31.619 10.7979 27.7297 6.51417 22.6077 5.03491Z" fill="#10F2C5"/>
<path d="M48.6479 29.2256H42.1854V10.9952H48.7014C50.5351 10.9952 52.1136 11.3602 53.437 12.0901C54.7603 12.8141 55.7781 13.8556 56.4902 15.2146C57.2083 16.5735 57.5673 18.1995 57.5673 20.0926C57.5673 21.9916 57.2083 23.6235 56.4902 24.9885C55.7781 26.3534 54.7544 27.4008 53.4192 28.1307C52.0899 28.8606 50.4995 29.2256 48.6479 29.2256ZM46.0398 25.9231H48.4877C49.6271 25.9231 50.5855 25.7213 51.3629 25.3178C52.1462 24.9083 52.7338 24.2763 53.1254 23.4218C53.523 22.5613 53.7218 21.4516 53.7218 20.0926C53.7218 18.7455 53.523 17.6447 53.1254 16.7901C52.7338 15.9356 52.1492 15.3065 51.3718 14.903C50.5944 14.4995 49.636 14.2977 48.4966 14.2977H46.0398V25.9231ZM65.3895 29.4481C64.351 29.4481 63.4104 29.1811 62.5677 28.647C61.731 28.107 61.0663 27.3147 60.5738 26.2703C60.0872 25.2199 59.8439 23.9321 59.8439 22.407C59.8439 20.8403 60.0961 19.5377 60.6005 18.4992C61.1049 17.4548 61.7755 16.6744 62.6122 16.1581C63.4549 15.6359 64.3777 15.3748 65.3806 15.3748C66.1461 15.3748 66.7841 15.5053 67.2944 15.7665C67.8107 16.0216 68.2261 16.3421 68.5407 16.7278C68.8611 17.1076 69.1044 17.4815 69.2706 17.8494H69.3863V10.9952H73.1695V29.2256H69.4308V27.0358H69.2706C69.0926 27.4156 68.8403 27.7924 68.514 28.1663C68.1935 28.5342 67.7751 28.8399 67.2588 29.0832C66.7485 29.3265 66.1254 29.4481 65.3895 29.4481ZM66.5912 26.4305C67.2025 26.4305 67.7188 26.2643 68.1401 25.932C68.5674 25.5938 68.8938 25.122 69.1193 24.5167C69.3507 23.9114 69.4664 23.2022 69.4664 22.3892C69.4664 21.5762 69.3537 20.87 69.1282 20.2706C68.9027 19.6713 68.5763 19.2084 68.149 18.882C67.7217 18.5556 67.2025 18.3924 66.5912 18.3924C65.9681 18.3924 65.4429 18.5615 65.0157 18.8998C64.5884 19.2381 64.265 19.7069 64.0454 20.3062C63.8258 20.9056 63.716 21.5999 63.716 22.3892C63.716 23.1844 63.8258 23.8876 64.0454 24.4989C64.2709 25.1042 64.5943 25.5789 65.0157 25.9231C65.4429 26.2614 65.9681 26.4305 66.5912 26.4305ZM87.6634 19.4517L84.1918 19.6653C84.1324 19.3686 84.0049 19.1016 83.809 18.8642C83.6132 18.6209 83.355 18.428 83.0346 18.2856C82.7201 18.1372 82.3432 18.0631 81.9041 18.0631C81.3166 18.0631 80.8211 18.1877 80.4175 18.4369C80.014 18.6802 79.8122 19.0066 79.8122 19.4161C79.8122 19.7425 79.9428 20.0184 80.2039 20.2439C80.465 20.4694 80.9131 20.6504 81.548 20.7869L84.0227 21.2854C85.352 21.5584 86.343 21.9975 86.9958 22.6028C87.6486 23.2081 87.9749 24.0033 87.9749 24.9885C87.9749 25.8845 87.7109 26.6708 87.1827 27.3474C86.6605 28.0239 85.9424 28.552 85.0285 28.9318C84.1206 29.3057 83.0732 29.4926 81.8863 29.4926C80.0763 29.4926 78.6343 29.1158 77.5601 28.3621C76.492 27.6025 75.8659 26.57 75.6819 25.2644L79.4117 25.0686C79.5244 25.6205 79.7974 26.0418 80.2306 26.3326C80.6638 26.6174 81.2187 26.7599 81.8952 26.7599C82.5598 26.7599 83.0939 26.6323 83.4975 26.3771C83.9069 26.116 84.1146 25.7807 84.1206 25.3712C84.1146 25.027 83.9693 24.7451 83.6844 24.5256C83.3996 24.3001 82.9604 24.128 82.367 24.0093L79.9992 23.5375C78.6639 23.2705 77.6699 22.8076 77.0172 22.1489C76.3703 21.4901 76.0469 20.6504 76.0469 19.6297C76.0469 18.7514 76.2843 17.9948 76.759 17.3598C77.2397 16.7249 77.9132 16.2353 78.7797 15.8911C79.652 15.5469 80.6727 15.3748 81.8418 15.3748C83.5687 15.3748 84.9277 15.7398 85.9187 16.4697C86.9157 17.1996 87.4972 18.1936 87.6634 19.4517ZM96.5227 34.6377C95.2942 34.6377 94.2409 34.4686 93.3626 34.1303C92.4903 33.798 91.7959 33.344 91.2796 32.7684C90.7634 32.1928 90.4281 31.5459 90.2738 30.8279L93.781 30.3561C93.8878 30.6291 94.0569 30.8842 94.2884 31.1216C94.5198 31.359 94.8254 31.5489 95.2052 31.6913C95.591 31.8397 96.0598 31.9139 96.6117 31.9139C97.4365 31.9139 98.116 31.7121 98.6501 31.3085C99.1901 30.9109 99.4602 30.2433 99.4602 29.3057V26.8044H99.2999C99.1338 27.1842 98.8845 27.5432 98.5522 27.8815C98.2199 28.2197 97.7926 28.4957 97.2704 28.7093C96.7482 28.9229 96.1251 29.0298 95.4011 29.0298C94.3744 29.0298 93.4398 28.7924 92.5971 28.3176C91.7603 27.8369 91.0927 27.1041 90.5942 26.1189C90.1017 25.1279 89.8554 23.8758 89.8554 22.3625C89.8554 20.8136 90.1076 19.5199 90.612 18.4814C91.1165 17.4429 91.787 16.6655 92.6238 16.1492C93.4665 15.6329 94.3893 15.3748 95.3922 15.3748C96.1577 15.3748 96.7986 15.5053 97.3149 15.7665C97.8312 16.0216 98.2466 16.3421 98.5611 16.7278C98.8816 17.1076 99.1278 17.4815 99.2999 17.8494H99.4424V15.5528H103.208V29.3591C103.208 30.5222 102.923 31.4955 102.353 32.2788C101.783 33.0621 100.994 33.6497 99.9854 34.0413C98.9824 34.4389 97.8282 34.6377 96.5227 34.6377ZM96.6028 26.1813C97.214 26.1813 97.7303 26.0299 98.1516 25.7273C98.5789 25.4187 98.9053 24.9796 99.1308 24.4099C99.3622 23.8342 99.478 23.1458 99.478 22.3447C99.478 21.5436 99.3652 20.8492 99.1397 20.2617C98.9142 19.6683 98.5878 19.2084 98.1605 18.882C97.7333 18.5556 97.214 18.3924 96.6028 18.3924C95.9797 18.3924 95.4545 18.5615 95.0272 18.8998C94.5999 19.2321 94.2765 19.695 94.0569 20.2884C93.8374 20.8819 93.7276 21.5673 93.7276 22.3447C93.7276 23.134 93.8374 23.8164 94.0569 24.392C94.2824 24.9617 94.6059 25.4039 95.0272 25.7184C95.4545 26.027 95.9797 26.1813 96.6028 26.1813ZM110.017 21.321V29.2256H106.225V15.5528H109.839V17.9651H110C110.302 17.1699 110.81 16.5409 111.522 16.078C112.234 15.6092 113.097 15.3748 114.112 15.3748C115.062 15.3748 115.889 15.5825 116.596 15.9979C117.302 16.4133 117.851 17.0067 118.242 17.7782C118.634 18.5437 118.83 19.4576 118.83 20.5199V29.2256H115.038V21.1964C115.044 20.3597 114.83 19.7069 114.397 19.2381C113.964 18.7633 113.367 18.5259 112.608 18.5259C112.097 18.5259 111.646 18.6357 111.255 18.8553C110.869 19.0749 110.566 19.3953 110.347 19.8167C110.133 20.2321 110.023 20.7335 110.017 21.321ZM121.819 29.2256V15.5528H125.495V17.9384H125.637C125.887 17.0898 126.305 16.4489 126.892 16.0157C127.48 15.5766 128.157 15.357 128.922 15.357C129.112 15.357 129.317 15.3689 129.536 15.3926C129.756 15.4163 129.949 15.449 130.115 15.4905V18.8553C129.937 18.8019 129.691 18.7544 129.376 18.7129C129.061 18.6713 128.774 18.6506 128.513 18.6506C127.955 18.6506 127.456 18.7722 127.017 19.0155C126.584 19.2529 126.24 19.5852 125.985 20.0125C125.735 20.4398 125.611 20.9323 125.611 21.4901V29.2256H121.819Z" fill="black"/>
</g>
<defs>
<clipPath id="clip0_1_607">
<rect width="172" height="40" fill="white" transform="translate(0 0.225586)"/>
</clipPath>
</defs>
</svg>
